<svg width="512" height="512" viewBox="0 0 512 512" fill="none" xmlns="http://www.w3.org/2000/svg">
  <rect x="24" y="24" width="464" height="464" rx="112" fill="#0B0E12" />
  <path
    d="M112 126H191.5C279.038 126 344 182.364 344 256C344 329.636 279.038 386 191.5 386H112V126ZM177 188V324H187.5C236.378 324 273 296.637 273 256C273 215.363 236.378 188 187.5 188H177Z"
    fill="#F5F1E8"
  />
  <rect x="275" y="126" width="125" height="260" rx="28" fill="url(#dh-block)" />
  <rect x="302" y="175" width="23" height="162" rx="8" fill="#091117" />
  <rect x="350" y="175" width="23" height="162" rx="8" fill="#091117" />
  <rect x="302" y="244" width="71" height="24" rx="8" fill="#091117" />
  <defs>
    <linearGradient id="dh-block" x1="337.5" y1="126" x2="337.5" y2="386" gradientUnits="userSpaceOnUse">
      <stop stop-color="#8BF4D7" />
      <stop offset="1" stop-color="#42DDB5" />
    </linearGradient>
  </defs>
</svg>
